<?xml version="1.0" encoding="utf-8"?>
<!-- Generator: Adobe Illustrator 16.0.0, SVG Export Plug-In . SVG Version: 6.00 Build 0)  -->
<!DOCTYPE svg PUBLIC "-//W3C//DTD SVG 1.1//EN" "http://www.w3.org/Graphics/SVG/1.1/DTD/svg11.dtd">
<svg version="1.1" id="Capa_1" xmlns="http://www.w3.org/2000/svg" xmlns:xlink="http://www.w3.org/1999/xlink" x="0px" y="0px"
	 width="360.436px" height="87.234px" viewBox="0 0 360.436 87.234" enable-background="new 0 0 360.436 87.234"
	 xml:space="preserve">
<g>
	<path fill="#F18F00" d="M224.559,11.326c-9.785,1.324-18.183,6.293-24.723,15.835c-10.761,15.698-12.216,37.599-24.84,50.294
		c-6.112,6.147-13.732,8.481-23.897,9.649c-2.342,0.269-5.06,0.041-5.236,0.011c-0.203-0.035-0.195-0.319,0.008-0.354
		c9.316-1.509,16.134-2.411,23.271-8.778c12.339-11.008,16.263-39.872,27.783-53.924c6.523-7.957,16.067-12.247,26.163-13.095
		c0.567-0.047,1.089-0.027,1.48,0.002C224.752,10.981,224.81,11.292,224.559,11.326L224.559,11.326z"/>
	<path fill="#F18F00" d="M191.478,9.039c0.798-2.982,3.472-4.857,5.971-4.187c2.498,0.67,3.877,3.632,3.077,6.615
		c-0.798,2.982-3.471,4.857-5.97,4.187S190.679,12.022,191.478,9.039L191.478,9.039z"/>
	<path fill="#F18F00" d="M183.26,39.191c0.104-0.185,0.468-1.356,0.594-2.012c5-25.921-7.959-33.496-21.305-36.645
		c-0.812-0.191-1.958-0.493-2.741-0.533c-0.191-0.01-0.278,0.25-0.072,0.345c6.823,3.111,23.58,9.536,23.379,35.471
		c-0.008,0.957-0.116,2.417-0.191,3.289C182.909,39.265,183.15,39.389,183.26,39.191L183.26,39.191z"/>
	<path d="M223.587,44.369c-0.279-1.416-0.514-2.786-0.652-3.838c-1.318-0.502-2.859-0.777-4.737-0.777
		c-2.174,0-3.744,0.482-4.812,1.243c-1.198,0.863-1.765,2.044-1.765,3.291c0,1.017,0.343,1.908,0.848,2.638
		c1.021,1.379,3.145,2.222,4.798,3.072c1.64,0.738,2.846,1.315,3.7,2.227c0.526,0.623,0.82,1.217,0.82,2.181
		c0,1.063-0.481,1.914-1.237,2.494c-0.771,0.591-1.852,0.913-3.036,0.913c-2.737,0-4.293-0.802-5.176-4.112l-1.187,0.323
		c0.345,1.208,0.657,2.387,0.876,4.039c1.55,0.566,3.555,0.936,5.291,0.936c2.565,0,4.421-0.699,5.598-1.756
		c1.019-0.93,1.568-2.165,1.568-3.565c0-1.311-0.466-2.318-1.168-3.154c-1.118-1.258-2.675-1.88-4.872-2.934
		c-1.675-0.824-2.69-1.339-3.359-1.966c-0.593-0.581-0.854-1.237-0.854-1.923c0-0.741,0.277-1.342,0.846-1.823
		c0.689-0.579,1.739-0.942,3.032-0.942c3.006,0,3.695,0.937,4.293,3.68L223.587,44.369L223.587,44.369z"/>
	<path d="M239.536,55.666c0,1.815-0.141,2.01-2.351,2.01v0.956h7.492v-0.956c-2.207,0-2.349-0.194-2.349-2.01V43.084
		c0-1.814,0.142-2.009,2.341-2.009V40.12h-7.478v0.955c2.203,0,2.344,0.195,2.344,2.009V55.666L239.536,55.666z"/>
	<path d="M271.529,54.233h-1.216c-0.729,3.021-1.025,3.218-2.529,3.218h-4.877c-0.7,0-0.867-0.123-0.867-1.187V43.113
		c0-1.859,0.119-2.039,2.076-2.039V40.12h-6.969v0.955c1.911,0,2.1,0.2,2.1,2.015v12.539c0,1.852-0.182,2.047-2.1,2.047v0.956
		h13.442L271.529,54.233L271.529,54.233z"/>
	<path d="M292.765,47.201l4.693-4.9c1.047-1.08,1.458-1.227,2.539-1.227V40.12h-5.483v0.955c1.737,0,1.65,0.452,0.201,2.019
		l-5.881,6.22h-0.066v-6.197c0-1.813,0.145-2.042,1.951-2.042V40.12h-6.875v0.955c1.969,0,2.131,0.192,2.131,2.006v12.588
		c0,1.814-0.162,2.007-2.131,2.007v0.956h6.971v-0.956c-1.896,0-2.047-0.223-2.047-2.037v-4.474l2.046-2.168l6.191,9.635h4.234
		v-0.956c-1.263,0-1.657-0.203-2.871-1.991L292.765,47.201L292.765,47.201z"/>
	<path d="M327.216,58.632l0.911-4.229h-1.209c-0.707,2.881-1.002,3.049-2.481,3.049h-5.387c-0.524,0-0.742-0.114-0.742-1.106v-6.746
		h3.891c1.141,0,1.335,0.187,1.335,2.615h1.17v-6.33h-1.17c0,2.264-0.207,2.534-1.343,2.534h-3.883v-5.906
		c0-1.045,0.078-1.213,0.936-1.213h4.493c1.395,0,1.679,0.101,2.361,2.934h1.209l-0.824-4.114h-13.105v0.955
		c1.944,0,2.138,0.193,2.138,2.007v12.586c0,1.814-0.186,2.008-2.127,2.008v0.956H327.216L327.216,58.632z"/>
	<path d="M345.426,40.12h-4.952v0.955c1.987,0,2.144,0.149,2.144,1.983v12.616c0,1.825-0.194,2.002-2.115,2.002v0.956h5.565v-0.956
		c-1.927,0-2.132-0.177-2.132-2.002V42.475h0.052l12.751,16.395h1.608V43.076c0-1.826,0.213-2.001,2.089-2.001V40.12h-5.608v0.955
		c1.986,0,2.201,0.174,2.201,2.001v12.149h-0.053L345.426,40.12L345.426,40.12z"/>
	<polygon points="0,57.652 2.401,57.652 2.401,49.551 11.579,49.551 11.579,57.652 13.979,57.652 13.979,39.949 11.579,39.949 
		11.579,47.3 2.401,47.3 2.401,39.949 0,39.949 0,57.652 	"/>
	<path fill-rule="evenodd" clip-rule="evenodd" d="M33.16,58.103c5.402,0,9.228-4.051,9.228-9.303c0-5.251-3.826-9.301-9.228-9.301
		c-5.401,0-9.228,4.05-9.228,9.301C23.933,54.052,27.759,58.103,33.16,58.103L33.16,58.103z M33.16,55.853
		c-4.051,0-6.677-3.176-6.677-7.053c0-3.876,2.625-7.051,6.677-7.051s6.677,3.175,6.677,7.051
		C39.837,52.677,37.211,55.853,33.16,55.853L33.16,55.853z"/>
	<polygon points="55.538,57.652 57.939,57.652 57.939,42.199 63.641,42.199 63.641,39.949 49.836,39.949 49.836,42.199 
		55.538,42.199 55.538,57.652 	"/>
	<polygon points="75.694,57.652 87.573,57.652 87.573,55.402 78.095,55.402 78.095,49.726 86.498,49.726 86.498,47.475 
		78.095,47.475 78.095,42.199 87.123,42.199 87.123,39.949 75.694,39.949 75.694,57.652 	"/>
	<polygon points="101.226,57.652 111.754,57.652 111.754,55.402 103.626,55.402 103.626,39.949 101.226,39.949 101.226,57.652 	"/>
	<polygon points="124.453,57.652 136.332,57.652 136.332,55.402 126.854,55.402 126.854,49.726 135.256,49.726 135.256,47.475 
		126.854,47.475 126.854,42.199 135.881,42.199 135.881,39.949 124.453,39.949 124.453,57.652 	"/>
	<path d="M148.534,55.652c1.2,1.675,3.376,2.45,5.651,2.45c3.401,0,6.152-2.051,6.152-5.477c0-6.376-8.728-3.701-8.728-8.177
		c0-1.101,0.8-2.701,3.451-2.701c1.375,0,2.551,0.626,3.151,1.55l1.951-1.775c-1.326-1.625-3.176-2.025-5.102-2.025
		c-4.251,0-6.002,2.876-6.002,4.951c0,6.901,8.728,4.376,8.728,8.452c0,1.95-1.95,2.951-3.526,2.951
		c-1.425,0-2.901-0.601-3.751-1.901L148.534,55.652L148.534,55.652z"/>
</g>
</svg>
